<?xml version="1.0" encoding="UTF-8"?>
<svg width="1200" height="630" viewBox="0 0 1200 630" xmlns="http://www.w3.org/2000/svg">
  <!-- Background -->
  <rect width="1200" height="630" fill="#3d7a6a"/>

  <!-- Subtle texture: slightly lighter centre vignette -->
  <radialGradient id="vignette" cx="50%" cy="50%" r="70%">
    <stop offset="0%" stop-color="#4a8f7d" stop-opacity="0.4"/>
    <stop offset="100%" stop-color="#2a5a4d" stop-opacity="0.4"/>
  </radialGradient>
  <rect width="1200" height="630" fill="url(#vignette)"/>

  <!-- Logo spiral — original viewBox 0 0 228.52 205.71, scale to ~200px tall, centre at x=180 -->
  <g transform="translate(140, 215) scale(0.97) translate(-114.26, -102.86)">
    <path
      fill="#ffffff"
      fill-opacity="0.95"
      d="M 103.30435,192.43016 C 1.7667191,180.36174 -30.80486,58.297057 56.478215,16.945353 140.2605,-22.747799 228.1729,78.422666 165.18183,142.04256 107.53382,200.26606 3.970359,124.27264 58.604317,63.837482 96.276339,22.165328 169.85089,59.029361 147.01856,108.13684 c -15.91671,34.23345 -75.723545,18.6894 -61.954051,-16.102124 5.191663,-13.11783 27.472021,-17.581349 30.328341,-6.075807 0.91843,3.699562 0.33094,4.024394 -3.64857,2.017339 -15.371451,-7.752559 -23.37311,16.290972 -8.27639,24.869042 25.82494,14.67393 47.5362,-22.423567 25.91576,-44.281601 C 96.429078,35.246979 42.175192,77.981015 63.077106,120.79121 93.914347,183.95043 191.5957,146.06182 174.29009,77.653961 151.71172,-11.59673 9.8184002,14.96819 21.039587,106.34515 c 12.281546,100.01173 166.170573,105.8359 193.549533,7.32518 3.76271,-13.53842 4.41906,-2.43625 0.7328,12.39561 -10.033,40.36842 -63.62119,72.11646 -112.01757,66.36422 z"
    />
  </g>

  <!-- Text block, right of logo -->
  <text x="420" y="248" font-family="Georgia, serif" font-size="58" font-weight="bold" fill="#ffffff" letter-spacing="-1">BodyTalk for Animals</text>
  <text x="420" y="310" font-family="Georgia, serif" font-size="32" fill="#c6e3db" letter-spacing="0">Intake Form</text>

  <!-- Divider -->
  <line x1="420" y1="345" x2="780" y2="345" stroke="#7dbdaf" stroke-width="2" stroke-linecap="round"/>

  <!-- Sub-brand -->
  <text x="420" y="382" font-family="Georgia, serif" font-size="26" fill="#7dbdaf" letter-spacing="1">Live by Design</text>

  <!-- Bottom tagline -->
  <text x="600" y="575" font-family="Georgia, serif" font-size="22" fill="#c6e3db" text-anchor="middle" opacity="0.8">Kerry Haarhoff · BodyTalk Practitioner</text>
</svg>
