<?xml version="1.0" encoding="UTF-8" standalone="no"?>
<!-- Created with Inkscape (http://www.inkscape.org/) -->

<svg
   version="1.1"
   id="svg1"
   width="228.52174"
   height="205.71429"
   viewBox="0 0 228.52174 205.71429"
   xmlns="http://www.w3.org/2000/svg"
   xmlns:svg="http://www.w3.org/2000/svg">
  <defs
     id="defs1" />
  <g
     id="g1">
    <path
       style="fill:#000000"
       d="M 103.30435,192.43016 C 1.7667191,180.36174 -30.80486,58.297057 56.478215,16.945353 140.2605,-22.747799 228.1729,78.422666 165.18183,142.04256 107.53382,200.26606 3.970359,124.27264 58.604317,63.837482 96.276339,22.165328 169.85089,59.029361 147.01856,108.13684 c -15.91671,34.23345 -75.723545,18.6894 -61.954051,-16.102124 5.191663,-13.11783 27.472021,-17.581349 30.328341,-6.075807 0.91843,3.699562 0.33094,4.024394 -3.64857,2.017339 -15.371451,-7.752559 -23.37311,16.290972 -8.27639,24.869042 25.82494,14.67393 47.5362,-22.423567 25.91576,-44.281601 C 96.429078,35.246979 42.175192,77.981015 63.077106,120.79121 93.914347,183.95043 191.5957,146.06182 174.29009,77.653961 151.71172,-11.59673 9.8184002,14.96819 21.039587,106.34515 c 12.281546,100.01173 166.170573,105.8359 193.549533,7.32518 3.76271,-13.53842 4.41906,-2.43625 0.7328,12.39561 -10.033,40.36842 -63.62119,72.11646 -112.01757,66.36422 z"
       id="path1" />
  </g>
</svg>
